<?xml version="1.0" encoding="utf-8"?>
<!-- Generator: Adobe Illustrator 24.1.0, SVG Export Plug-In . SVG Version: 6.00 Build 0)  -->
<svg version="1.1" id="Livello_1" xmlns="http://www.w3.org/2000/svg" xmlns:xlink="http://www.w3.org/1999/xlink" x="0px" y="0px"
	 viewBox="0 0 841.89 595.28" style="enable-background:new 0 0 841.89 595.28;" xml:space="preserve">
<style type="text/css">
	.st0{fill:#1A9288;}
	.st1{fill:#FFFFFF;}
	.st2{fill:#020203;}
</style>
<g id="GitKraken_1_">
	<g id="GitKraken">
		<path class="st0" d="M324.69,185.11c0,0-66.81,34.81-90.91,115.56c0,0-33.06,105.81,51.65,188.65c0,0,35.12,34.11,85.4,48.03
			v-81.45c0,0,9.86,3.4,19.63,5.09v96.87c0,0-58.89-1.61-113.28-53.32c0,0-59.62-53.69-64.9-136.47c0,0-5.28-43.25,11.09-86.51
			c0.4-0.61,2.39-3.83,1.46-7.89c-0.12-0.5-1.34-5.47-5.81-6.89c-3.83-1.22-7.16,1.09-8.13,1.76c-4.69,3.25-5.16,8.97-5.22,9.85
			c0,0-14.66,41.47-11.75,93.1c0,0,2.42,84.65,72.62,147.53c0,0,51.8,56.03,141.36,57.98V463.48h17.82V577
			c0,0,73.27,2.68,140.48-57.06c0,0,83.82-65,73.55-188.84c0,0-1.62-28.16-12.98-56.04c-0.1-0.74-0.65-4.19-3.71-6.52
			c-2.49-1.89-5.99-2.56-9.08-1.28c-0.77,0.32-3.04,1.39-4.41,3.98c-2.03,3.85-0.33,7.72-0.11,8.19c0,0,10.82,26.79,11.9,54.13
			c0,0,15.69,95.68-66.54,172.77c0,0-49.77,45.93-110.89,51.39l0.25-96.58c0,0,10.55-1.47,17.52-5.08l0.19,81.7
			c0,0,46.25-9.96,82.64-44.52c0,0,70.11-55.61,60.94-159.01c0,0-0.48-93.9-95.55-149.14c-0.7-0.44-3.28-1.94-6.71-1.42
			c-0.89,0.13-3.92,0.64-6.05,3.42c-2.23,2.92-1.84,6.21-1.7,7.06c0.47,3.02,2.27,4.88,2.88,5.46c0,0,83.68,44.26,88.31,136.09
			c0,0,14.48,80.48-54.05,143.41c0,0-21.72,21.95-52.6,33.66l0.48-72.19c0,0,38.23-20.6,5.03-49.7c0,0,4.15-38.02,17.12-46.67
			c0,0,6.1-6.93,15.18-11.37c0,0,4.1-2.37,2.05-23.68c0,0-13.22-51.92-74.46-110.79c0,0-26.88-33.97-59.74,1.51
			c0,0-38.53,32.44-69.41,99.87c0,0-2.42,10.19-2.14,15.6c0,0,0,5.69-0.28,12.24c0,0,0.56,4.27,6.48,8.54
			c0,0,25.62,7.12,27.59,54.36c0,0-32.66,28.75,6.19,50.38v72.01c0,0-29.61-10.02-56.47-36.81c0,0-49.14-44.59-51.62-113.5
			c0,0-9.95-107.64,89.08-162.97c0.73-0.45,2.44-1.63,3.31-3.83c1.58-3.99-1.02-7.71-1.47-8.33c-0.47-0.64-2.23-2.98-5.52-3.65
			C327.9,183.06,325.22,184.76,324.69,185.11z"/>
		<ellipse class="st1" cx="362.81" cy="414.49" rx="18.44" ry="18.64"/>
		<ellipse class="st1" cx="471.27" cy="414.49" rx="18.44" ry="18.64"/>
	</g>
	<g>
		<g>
			<path class="st2" d="M347.79,138.54c-0.68,0.71-2.07,1.07-5.91-1.53c-4.33-2.93-10.66-4.3-18.21,2.21
				c-13.07,11.25-32.94-8.7-40.39-18.39c-7.71-10.02-23.87-22.47-4.73-31.69c5.34-2.57,10.76-2.96,13.84-2.64
				c0.98,2,1.98,4.06,3.02,6.17c-3.78-0.51-7.71-0.49-11.93,1.21c-12.89,5.21-2.02,19.94,3.35,25.68
				c7.85,8.37,21.15,21.69,34.82,17.31c5.35-1.71,7.77-7.62,13.91-7.93c2.55-0.13,3.83,0.19,3.95-0.59
				c-5.72-7.82-11.12-7.69-15.8-8.82c-2.17,2.48-4.45,5.09-7.49,6.95c-2.5-1.04-5.49-2.82-9.17-5.62
				c8.01,0.21,12.24-3.82,16.09-7.55C336.05,116.03,341.87,128.34,347.79,138.54z"/>
			<path class="st2" d="M319.68,88.44c1.96,2.51,1.99,4.85-0.43,5.82c-2.15,0.86-5.86-0.83-8.68-4.14c-2.92-3.43-2.59-6.16,0.6-6.26
				C314.45,83.75,317.73,85.82,319.68,88.44z M355.82,147.85c-9.71-20.45-16.92-32.35-33.94-46.49c1.78-1.15,3.45-2.32,5.2-3.36
				c16.71,12.93,23.78,33.4,32.64,51.85C358.41,149.39,357.11,148.69,355.82,147.85z"/>
			<path class="st2" d="M337.21,82.29c2.6,3.24,5.18,7.07,7.73,11.61c3.11,0.2,6.23,0.54,9.37,0.54c1.05,2.43,2.1,4.93,3.15,7.49
				c-2.98,0.01-5.92-0.48-8.85-1.01c4.85,10.56,9.41,21.23,14.1,31.86c3.28,6.92,6.09,8.5,8.54,5.63c1.17-1.37,1.87-2.67,2.29-3.55
				c1.16,0.77,2.34,1.25,3.54,1.49c-0.45,1.43-1.46,3.61-3.05,5.96c-1.92,2.83-4.25,4.49-6.69,3.74c-2.71-0.83-5.79-6.05-9.14-13.52
				c-4.83-10.98-9.42-22.27-15.57-32.6c-1.74-0.21-3.47-0.3-5.21-0.15c-1.45-1.77-2.96-3.17-4.39-4.54
				c1.81-0.61,3.71-1.14,5.56-1.32c-2.35-3.11-4.82-5.31-7.01-7.85C333.28,84.87,335.25,83.45,337.21,82.29z"/>
			<path class="st2" d="M354.15,74.7c2.54-0.51,5.09-1.11,7.66-1.85c4.23,10.2,7.21,20.83,11.31,31.08
				c0.06-0.06,0.13-0.12,0.19-0.18c0.25-3.17,0.64-6.21,1.08-9.02c1.66-10.18,4.21-20.83,7.9-30.49c2.56-1.31,5.16-2.41,8.06-3.06
				c-5.76,9.67-8.08,20.82-10.57,31.63c9.18,1.24,20.07,7.3,24.85,15.39c-1.6,0.4-3.19,0.64-4.78,0.63
				c-6.32-7.61-14.21-5.36-22.18-7.77c-0.52,3.21-0.96,6.41-1.32,9.54c3.08,5.44,6.43,8.49,10.04,10.42
				c-1.37,2.15-2.75,4.45-4.12,6.79C365.91,121.7,360,88.45,354.15,74.7z"/>
			<path class="st2" d="M402.77,82.51c-0.88-4.02-1.66-7.35-2.52-10.26c2.01-1.84,4.04-4.39,6.07-7.27c0.35,2.44,0.72,4.92,1.1,7.45
				c0.1-0.12,0.19-0.25,0.29-0.37c0.93-7.42,5.06-18.48,9.85-25.22c0.8-1.13,1.37-1.76,2-2.34c-0.09,3.24-0.15,6.54-0.2,9.85
				c-0.67,0.55-1.34,1.26-2.24,2.44c-4.7,6.14-7.68,15.45-7.79,22.05c-0.02,1.2-0.01,2.56,0.14,3.87c0.87,7.5,1.79,15.14,2.6,22.77
				c-1.36,0.59-2.71,1.15-4.06,1.65C406.35,98.5,404.48,90.34,402.77,82.51z"/>
			<path class="st2" d="M435.56,102.09c0.43-2.6,0.86-5.2,1.28-7.77c-0.06-0.01-0.11-0.03-0.17-0.04c-2.56,4.4-5.56,8.06-8.65,7.91
				c-4.31-0.21-6.47-7.22-6.29-15.7c0.19-9.35,7.51-34.62,21.67-20.12c0.1-0.32,0.2-0.63,0.31-0.94c1.25-3.68,2.36-11.51-6.51-17.17
				c-3.98-2.54-7.88-2.19-10.53,1.74c-0.33-2.27-0.67-4.47-1.03-6.59c3.25-5.06,8.56-5.09,14.25-0.36
				c8.25,6.86,16.35,18.26,10.15,29.2c-2.29,4.76-4.54,10.5-6.72,17.11c-1.52,4.6-2.83,9.55-3.69,13.63
				C438.23,102.66,436.87,102.35,435.56,102.09z M441.73,72.54c-7.2-4.2-14.33-1.7-15.05,10.63c-0.44,7.5,1.17,10.52,3.38,10.77
				c3.09,0.35,6.1-4.27,8.14-8.91c0.43-1.02,0.84-2.15,1.1-3.2C440.09,78.57,440.9,75.46,441.73,72.54z"/>
			<path class="st2" d="M464.4,86.71c0.04,0.03,0.07,0.06,0.11,0.09c1.41-0.58,3.5-0.65,5.44-1.71
				c9.62-7.66,14.95-22.55,20.15-33.03c2.7-2.24,5.4-3.78,8.12-3.73c-9.19,13.14-14.68,29.61-26.03,41.05
				c-1.08,10.86-4.35,17.88-7.03,25.51c-1.11-1.3-2.41-2.43-3.86-3.44c2.22-6.96,3.48-13.68,4.14-20.94
				c-1.48,0.46-3.08,0.84-4.74,1.32c-2.93,4.02-6.09,8.74-9.39,14.69c-1.5-0.56-3.04-1.08-4.58-1.56
				c11.57-23.75,24.6-42.24,32.44-68.14c2.71-3.15,5.41-6.69,8.12-9.76C481.51,46.44,477.56,70.66,464.4,86.71z"/>
			<path class="st2" d="M487.95,92.45c-2.56,6.8-10.08,26.54-5.69,28.53c1.48,0.67,5.56-2.55,8.46-5.27
				c-1.84,3.84-3.69,7.76-5.57,11.39c-2.71,2.49-6.95,4.62-9.68,2.21c-7.81-6.88,5.23-28.45,8.23-35.94
				c6.54-16.35,17.5-44.32,37.1-23.56c9.52,10.09-0.25,19.61-8.8,24.33c-1.86,1.03-3.5,2.27-4.51,3.02
				C500.99,91.68,494.44,89.37,487.95,92.45z M509.06,87.56c5.71-4.12,11.99-7.89,5.44-16.83c-8.85-12.08-18.01,3.52-21.49,9.35
				C498.32,78.48,503.73,82.5,509.06,87.56z"/>
			<path class="st2" d="M528.31,95.98c5.67-3.01,10.25-7.26,14.55-10.76c1.95,0.75,3.89,1.52,5.82,2.31
				c-3.04,2.29-6.08,4.59-9.13,6.88c0.05,0.02,0.09,0.04,0.14,0.06c7.06-3.17,17.81-5.49,22.78-2.47
				c10.17,6.2-11.43,18.99-16.63,22.12c-13.67,7.48-27.45,14.75-41,22.44c-1.14-0.8-2.29-1.6-3.45-2.37
				c12.35-7.91,25.51-14.27,37.89-22.11c10.66-6.17,17.54-12.39,11.69-15.09c-4.07-1.88-12.23,0.22-19.01,3.91
				c-1.57,0.81-3.49,1.76-5.28,2.67c-14.48,6.19-24.44,14.98-34.57,26.85c-1.15-0.09-2.3-0.07-3.45-0.04
				C499.63,114.25,509.83,103.15,528.31,95.98z"/>
		</g>
	</g>
</g>
</svg>
